# xmcd
#
# Track frame offsets:
#	150
#	16348
#	29860
#	46513
#	70553
#	83690
#	96515
#	129513
#	156783
#
# Disc length: 2336 seconds
#
# Revision: 0
# Processed by: cddbd v1.5.2PL0 Copyright (c) Steve Scherf et al.
# Submitted via: audiograbber 1.83.01
#
DISCID=69091e09
DTITLE=Vince Weber - The Boogie Man
DYEAR=1975
DGENRE=Boogie Woogie
TTITLE0=I'm The Boogie Man
TTITLE1=Chicago Breakdown
TTITLE2=Dust My Broom
TTITLE3=Another Babe
TTITLE4=Talk To Me, Baby
TTITLE5=Mr. Pinetop's Job
TTITLE6=Days Began To Drive Down
TTITLE7=Boogie Woogie Runner
TTITLE8=Roll'em Pete
EXTD=
EXTT0=
EXTT1=
EXTT2=
EXTT3=
EXTT4=
EXTT5=
EXTT6=
EXTT7=
EXTT8=
PLAYORDER=
